#N canvas 223 16 1098 686 16;
#X obj 731 656 comment 0 12 courier ? 0 0 0 0 ejemplo 31.5;
#X obj 731 670 comment 0 12 courier ? 0 0 0 0 Lic. José Rafael Subía
Valdez;
#X obj 731 684 comment 0 12 courier ? 0 0 0 0 PD-Tutorial - CAM3 -
UNQ;
#X obj 731 698 comment 0 12 courier ? 0 0 0 0 https://puredata.info/author/rafasubia
;
#X obj 731 726 comment 0 12 courier ? 0 0 0 0 copyleft (c);
#X obj 731 712 comment 0 12 courier ? 0 0 0 0 jsubiavaldez@gmail.com
;
#N canvas 0 22 450 300 io 0;
#X obj 194 74 inlet~;
#X obj 190 167 outlet~;
#X connect 0 0 1 0;
#X restore 67 638 pd io;
#X obj 352 639 send~ feedback;
#X obj 313 133 r~ feedback;
#X obj 352 600 *~;
#X obj 662 535 hsl 300 25 0 1 0 0 empty empty de_0_a_1 -2 -15 0 25
-262144 -1 -1 3076 1;
#X floatatom 659 573 5 0 0 0 - - -;
#X text 966 528 Feedbback;
#X text 755 569 cuidado con el feedback!!;
#X text 59 79 Línea de Retardo con LFO;
#X text 499 82 Chorus;
#X obj 51 418 *~;
#X obj 84 258 vsl 15 128 0 1 0 0 empty empty empty 0 -9 0 10 -262144
-1 -1 9600 1;
#X text 64 220 Vol Directo;
#N canvas 145 22 851 649 voz 0;
#X obj 42 292 comment 59 14 helvetica ? 35584 0 0 0 frec;
#X floatatom 107 169 5 0 0 2 Del_Max - -;
#X obj 31 380 +~;
#X obj 31 347 *~;
#X obj 31 314 osc~;
#X obj 58 424 vd~ delChorus;
#X obj 58 540 *~;
#X text 140 370 VOZ 1;
#X obj 213 362 osc~;
#X obj 213 387 +~ 1;
#X obj 213 412 /~ 2;
#X floatatom 107 216 5 0 20 2 LFO/Rate - -;
#X obj 213 437 *~;
#X floatatom 107 265 5 0 0 2 LFO/Deep - -;
#X obj 267 494 -;
#X msg 267 466 1;
#X obj 267 439 t b a;
#X obj 213 517 +~;
#X obj 58 589 outlet~;
#X floatatom 106 122 5 0 0 2 RateDelay - -;
#X obj 271 42 random 100;
#X obj 271 71 / 1000;
#X obj 377 42 random 100;
#X obj 483 42 random 100;
#X obj 483 71 / 100;
#X obj 589 42 random 100;
#X obj 589 71 / 100;
#X obj 417 10 loadbang;
#X connect 1 0 3 1;
#X connect 1 0 2 1;
#X connect 2 0 5 0;
#X connect 3 0 2 0;
#X connect 4 0 3 0;
#X connect 5 0 6 0;
#X connect 6 0 18 0;
#X connect 8 0 9 0;
#X connect 9 0 10 0;
#X connect 10 0 12 0;
#X connect 11 0 8 0;
#X connect 12 0 17 0;
#X connect 13 0 12 1;
#X connect 13 0 16 0;
#X connect 14 0 17 1;
#X connect 15 0 14 0;
#X connect 16 0 15 0;
#X connect 16 1 14 1;
#X connect 17 0 6 1;
#X connect 19 0 4 0;
#X connect 20 0 21 0;
#X connect 21 0 19 0;
#X connect 22 0 1 0;
#X connect 23 0 24 0;
#X connect 24 0 11 0;
#X connect 25 0 26 0;
#X connect 26 0 13 0;
#X connect 27 0 20 0;
#X connect 27 0 22 0;
#X connect 27 0 23 0;
#X connect 27 0 25 0;
#X coords 0 -1 1 1 95 195 2 100 100;
#X restore 330 214 pd voz;
#N canvas 498 135 851 649 voz 0;
#X obj 66 288 comment 59 14 helvetica ? 35584 0 0 0 frec;
#X floatatom 107 169 5 0 0 2 Del_Max - -;
#X obj 58 380 +~;
#X obj 58 347 *~;
#X obj 58 314 osc~;
#X obj 58 424 vd~ delChorus;
#X obj 58 540 *~;
#X text 140 370 VOZ 1;
#X obj 213 362 osc~;
#X obj 213 387 +~ 1;
#X obj 213 412 /~ 2;
#X floatatom 107 216 5 0 20 2 LFO/Rate - -;
#X obj 213 437 *~;
#X floatatom 107 265 5 0 0 2 LFO/Deep - -;
#X obj 267 494 -;
#X msg 267 466 1;
#X obj 267 439 t b a;
#X obj 213 517 +~;
#X obj 58 589 outlet~;
#X floatatom 106 122 5 0 0 2 RateDelay - -;
#X obj 271 42 random 100;
#X obj 271 71 / 1000;
#X obj 377 42 random 100;
#X obj 483 42 random 100;
#X obj 483 71 / 100;
#X obj 589 42 random 100;
#X obj 589 71 / 100;
#X obj 417 10 loadbang;
#X connect 1 0 3 1;
#X connect 1 0 2 1;
#X connect 2 0 5 0;
#X connect 3 0 2 0;
#X connect 4 0 3 0;
#X connect 5 0 6 0;
#X connect 6 0 18 0;
#X connect 8 0 9 0;
#X connect 9 0 10 0;
#X connect 10 0 12 0;
#X connect 11 0 8 0;
#X connect 12 0 17 0;
#X connect 13 0 12 1;
#X connect 13 0 16 0;
#X connect 14 0 17 1;
#X connect 15 0 14 0;
#X connect 16 0 15 0;
#X connect 16 1 14 1;
#X connect 17 0 6 1;
#X connect 19 0 4 0;
#X connect 20 0 21 0;
#X connect 21 0 19 0;
#X connect 22 0 1 0;
#X connect 23 0 24 0;
#X connect 24 0 11 0;
#X connect 25 0 26 0;
#X connect 26 0 13 0;
#X connect 27 0 20 0;
#X connect 27 0 22 0;
#X connect 27 0 23 0;
#X connect 27 0 25 0;
#X coords 0 -1 1 1 95 195 2 100 100;
#X restore 427 214 pd voz;
#N canvas 498 135 851 649 voz 0;
#X obj 66 288 comment 59 14 helvetica ? 35584 0 0 0 frec;
#X floatatom 107 169 5 0 0 2 Del_Max - -;
#X obj 58 380 +~;
#X obj 58 347 *~;
#X obj 58 314 osc~;
#X obj 58 424 vd~ delChorus;
#X obj 58 540 *~;
#X text 140 370 VOZ 1;
#X obj 213 362 osc~;
#X obj 213 387 +~ 1;
#X obj 213 412 /~ 2;
#X floatatom 107 216 5 0 20 2 LFO/Rate - -;
#X obj 213 437 *~;
#X floatatom 107 265 5 0 0 2 LFO/Deep - -;
#X obj 267 494 -;
#X msg 267 466 1;
#X obj 267 439 t b a;
#X obj 213 517 +~;
#X obj 58 589 outlet~;
#X floatatom 106 122 5 0 0 2 RateDelay - -;
#X obj 271 42 random 100;
#X obj 271 71 / 1000;
#X obj 377 42 random 100;
#X obj 483 42 random 100;
#X obj 483 71 / 100;
#X obj 589 42 random 100;
#X obj 589 71 / 100;
#X obj 417 10 loadbang;
#X connect 1 0 3 1;
#X connect 1 0 2 1;
#X connect 2 0 5 0;
#X connect 3 0 2 0;
#X connect 4 0 3 0;
#X connect 5 0 6 0;
#X connect 6 0 18 0;
#X connect 8 0 9 0;
#X connect 9 0 10 0;
#X connect 10 0 12 0;
#X connect 11 0 8 0;
#X connect 12 0 17 0;
#X connect 13 0 12 1;
#X connect 13 0 16 0;
#X connect 14 0 17 1;
#X connect 15 0 14 0;
#X connect 16 0 15 0;
#X connect 16 1 14 1;
#X connect 17 0 6 1;
#X connect 19 0 4 0;
#X connect 20 0 21 0;
#X connect 21 0 19 0;
#X connect 22 0 1 0;
#X connect 23 0 24 0;
#X connect 24 0 11 0;
#X connect 25 0 26 0;
#X connect 26 0 13 0;
#X connect 27 0 20 0;
#X connect 27 0 22 0;
#X connect 27 0 23 0;
#X connect 27 0 25 0;
#X coords 0 -1 1 1 95 195 2 100 100;
#X restore 524 214 pd voz;
#N canvas 0 150 851 649 voz 0;
#X obj 66 288 comment 59 14 helvetica ? 35584 0 0 0 frec;
#X floatatom 107 169 5 0 0 2 Del_Max - -;
#X obj 58 380 +~;
#X obj 58 347 *~;
#X obj 58 314 osc~;
#X obj 58 424 vd~ delChorus;
#X obj 58 540 *~;
#X text 140 370 VOZ 1;
#X obj 213 362 osc~;
#X obj 213 387 +~ 1;
#X obj 213 412 /~ 2;
#X floatatom 107 216 5 0 20 2 LFO/Rate - -;
#X obj 213 437 *~;
#X floatatom 107 265 5 0 0 2 LFO/Deep - -;
#X obj 267 494 -;
#X msg 267 466 1;
#X obj 267 439 t b a;
#X obj 213 517 +~;
#X obj 58 589 outlet~;
#X floatatom 106 122 5 0 0 2 RateDelay - -;
#X obj 271 42 random 100;
#X obj 271 71 / 1000;
#X obj 377 42 random 100;
#X obj 483 42 random 100;
#X obj 483 71 / 100;
#X obj 589 42 random 100;
#X obj 589 71 / 100;
#X obj 417 10 loadbang;
#X connect 1 0 3 1;
#X connect 1 0 2 1;
#X connect 2 0 5 0;
#X connect 3 0 2 0;
#X connect 4 0 3 0;
#X connect 5 0 6 0;
#X connect 6 0 18 0;
#X connect 8 0 9 0;
#X connect 9 0 10 0;
#X connect 10 0 12 0;
#X connect 11 0 8 0;
#X connect 12 0 17 0;
#X connect 13 0 12 1;
#X connect 13 0 16 0;
#X connect 14 0 17 1;
#X connect 15 0 14 0;
#X connect 16 0 15 0;
#X connect 16 1 14 1;
#X connect 17 0 6 1;
#X connect 19 0 4 0;
#X connect 20 0 21 0;
#X connect 21 0 19 0;
#X connect 22 0 1 0;
#X connect 23 0 24 0;
#X connect 24 0 11 0;
#X connect 25 0 26 0;
#X connect 26 0 13 0;
#X connect 27 0 20 0;
#X connect 27 0 22 0;
#X connect 27 0 23 0;
#X connect 27 0 25 0;
#X coords 0 -1 1 1 95 195 2 100 100;
#X restore 621 214 pd voz;
#X obj 159 164 delwrite~ delChorus 5000;
#X text 662 141 Encapsulado;
#N canvas 0 150 851 649 voz 0;
#X obj 66 288 comment 59 14 helvetica ? 35584 0 0 0 frec;
#X floatatom 107 169 5 0 0 2 Del_Max - -;
#X obj 58 380 +~;
#X obj 58 347 *~;
#X obj 58 314 osc~;
#X obj 58 424 vd~ delChorus;
#X obj 58 540 *~;
#X text 140 370 VOZ 1;
#X obj 213 362 osc~;
#X obj 213 387 +~ 1;
#X obj 213 412 /~ 2;
#X floatatom 107 216 5 0 20 2 LFO/Rate - -;
#X obj 213 437 *~;
#X floatatom 107 265 5 0 0 2 LFO/Deep - -;
#X obj 267 494 -;
#X msg 267 466 1;
#X obj 267 439 t b a;
#X obj 213 517 +~;
#X obj 58 589 outlet~;
#X floatatom 106 122 5 0 0 2 RateDelay - -;
#X obj 271 42 random 100;
#X obj 271 71 / 1000;
#X obj 377 42 random 100;
#X obj 483 42 random 100;
#X obj 483 71 / 100;
#X obj 589 42 random 100;
#X obj 589 71 / 100;
#X obj 417 10 loadbang;
#X connect 1 0 3 1;
#X connect 1 0 2 1;
#X connect 2 0 5 0;
#X connect 3 0 2 0;
#X connect 4 0 3 0;
#X connect 5 0 6 0;
#X connect 6 0 18 0;
#X connect 8 0 9 0;
#X connect 9 0 10 0;
#X connect 10 0 12 0;
#X connect 11 0 8 0;
#X connect 12 0 17 0;
#X connect 13 0 12 1;
#X connect 13 0 16 0;
#X connect 14 0 17 1;
#X connect 15 0 14 0;
#X connect 16 0 15 0;
#X connect 16 1 14 1;
#X connect 17 0 6 1;
#X connect 19 0 4 0;
#X connect 20 0 21 0;
#X connect 21 0 19 0;
#X connect 22 0 1 0;
#X connect 23 0 24 0;
#X connect 24 0 11 0;
#X connect 25 0 26 0;
#X connect 26 0 13 0;
#X connect 27 0 20 0;
#X connect 27 0 22 0;
#X connect 27 0 23 0;
#X connect 27 0 25 0;
#X coords 0 -1 1 1 95 195 2 100 100;
#X restore 735 215 pd voz;
#X obj 51 118 inlet~;
#X obj 68 681 outlet~;
#X floatatom 829 510 5 0 0 0 - - -;
#X msg 676 417 1;
#X obj 849 475 line 500;
#X obj 673 451 metro 2000;
#X msg 892 439 \$1 1000;
#X obj 625 428 bng 15 250 50 0 empty auto empty 17 7 0 10 -262144 -1
-1;
#X obj 782 413 random 3000;
#X obj 675 482 randomF 3;
#X obj 787 449 / 10;
#X connect 6 0 27 0;
#X connect 8 0 23 0;
#X connect 9 0 7 0;
#X connect 10 0 9 1;
#X connect 10 0 11 0;
#X connect 16 0 6 0;
#X connect 17 0 16 1;
#X connect 19 0 9 0;
#X connect 19 0 6 0;
#X connect 20 0 6 0;
#X connect 20 0 9 0;
#X connect 21 0 6 0;
#X connect 21 0 9 0;
#X connect 22 0 6 0;
#X connect 22 0 9 0;
#X connect 26 0 16 0;
#X connect 26 0 23 0;
#X connect 29 0 31 0;
#X connect 30 0 10 0;
#X connect 31 0 34 0;
#X connect 31 0 35 0;
#X connect 32 0 30 0;
#X connect 33 0 29 0;
#X connect 34 0 31 1;
#X connect 35 0 36 0;
#X connect 36 0 32 0;
