#N canvas 288 32 722 619 16;
#X obj 126 399 *~;
#X floatatom 456 151 8 0 0 0 - oscilador -;
#X obj 457 309 *~;
#X obj 456 264 /~ 2;
#X obj 456 228 +~ 1;
#X obj 456 193 osc~;
#X obj 138 253 delwrite~ flanger 500;
#X obj 127 338 vd~ flanger;
#X obj 275 341 hsl 80 20 0 0.9 0 0 empty realiment empty -2 -8 0 10
-1 -262144 -1 1756 1;
#X text 255 391 Realimentación;
#X obj 54 422 +~;
#X obj 457 351 s~ t-retardo;
#X obj 154 292 r~ t-retardo;
#X obj 554 269 hsl 80 20 1 100 0 0 empty retardo empty -2 -8 0 10 -1
-262144 -1 5076 1;
#X text 543 233 Retardo (ms);
#X obj 452 416 loadbang;
#X floatatom 554 296 5 0 0 0 - - -;
#X floatatom 272 365 5 0 0 0 - - -;
#X obj 218 541 *~;
#X obj 275 579 line~;
#X msg 275 549 1$ 50;
#X floatatom 362 539 5 0 0 0 - - -;
#X obj 43 481 *~;
#X obj 102 502 r dwfl;
#X obj 118 104 inlet~;
#X obj 14 569 outlet~;
#X obj 314 455 1;
#X obj 159 201 r~ realime;
#X obj 156 441 s~ realime;
#X msg 452 452 \; oscilador 440 \; retardo 21 \; realiment 0.5 \; dwfl
1;
#X msg 559 77 1;
#X obj 555 198 line 500;
#X obj 557 110 metro 2000;
#X msg 556 172 \$1 1000;
#X obj 558 51 bng 15 250 50 0 empty auto empty 17 7 0 10 -262144 -1
-1;
#X obj 558 142 randomF 100;
#X msg 358 162 1;
#X obj 355 293 line 500;
#X obj 355 196 metro 2000;
#X msg 358 260 \$1 1000;
#X obj 233 44 bng 15 250 50 0 empty auto empty 17 7 0 10 -262144 -1
-1;
#X obj 654 29 random 4000;
#X floatatom 654 72 5 0 0 0 - - -;
#X obj 398 77 random 6000;
#X msg 243 151 0;
#X msg 479 115 0;
#X obj 358 227 randomF 3;
#X obj 290 209 / 10;
#X msg 304 293 0.2;
#X connect 0 0 10 1;
#X connect 0 0 28 0;
#X connect 1 0 5 0;
#X connect 2 0 11 0;
#X connect 3 0 2 0;
#X connect 4 0 3 0;
#X connect 5 0 4 0;
#X connect 7 0 0 0;
#X connect 8 0 0 1;
#X connect 8 0 17 0;
#X connect 10 0 22 0;
#X connect 12 0 7 0;
#X connect 13 0 2 1;
#X connect 13 0 16 0;
#X connect 15 0 29 0;
#X connect 19 0 18 1;
#X connect 20 0 19 0;
#X connect 22 0 25 0;
#X connect 23 0 22 1;
#X connect 24 0 6 0;
#X connect 24 0 10 0;
#X connect 26 0 20 0;
#X connect 26 0 21 0;
#X connect 27 0 6 0;
#X connect 30 0 32 0;
#X connect 31 0 13 0;
#X connect 32 0 35 0;
#X connect 32 0 41 0;
#X connect 33 0 31 0;
#X connect 34 0 30 0;
#X connect 35 0 33 0;
#X connect 36 0 38 0;
#X connect 38 0 43 0;
#X connect 38 0 46 0;
#X connect 39 0 37 0;
#X connect 40 0 36 0;
#X connect 40 0 48 0;
#X connect 41 0 42 0;
#X connect 42 0 32 1;
#X connect 43 0 38 1;
#X connect 44 0 38 0;
#X connect 45 0 32 0;
#X connect 46 0 47 0;
#X connect 47 0 39 0;
#X connect 48 0 8 0;
