#N canvas 9 0 1026 676 10;
#X obj 100 65 matriz15-;
#X obj 649 454 output~;
#X obj 650 415 r~ L;
#X obj 708 415 r~ R;
#X obj 557 463 s~ L;
#X obj 594 462 s~ R;
#X text 697 17 borrar todo;
#N canvas 0 0 1024 686 clear 0;
#X obj 54 52 inlet;
#X msg 54 83 \; conect 1 1 0 \; conect 1 2 0 \; conect 1 3 0 \; conect
1 4 0 \; conect 1 5 0 \; conect 2 1 0 \; conect 2 2 0 \; conect 2 3
0 \; conect 2 4 0 \; conect 2 5 0 \; conect 3 1 0 \; conect 3 2 0 \;
conect 3 3 0 \; conect 3 4 0 \; conect 3 5 0 \; conect 4 1 0 \; conect
4 2 0 \; conect 4 3 0 \; conect 4 4 0 \; conect 4 5 0 \; conect 5 1
0 \; conect 5 2 0 \; conect 5 3 0 \; conect 5 4 0 \; conect 5 5 0 \;
;
#X connect 0 0 1 0;
#X restore 703 87 pd clear;
#X obj 703 51 bng 15 250 50 0 empty empty empty 17 7 0 10 -262144 -1
-1;
#X obj 16 591 multitap;
#X obj 119 593 flanger;
#X obj 12 505 phasor;
#X obj 98 505 reverb;
#X text 56 289 flanger;
#X text 41 266 multitap;
#X text 57 360 reverb;
#X text 58 337 phasor;
#X obj 452 533 s~ phasor-in;
#X obj 12 478 r~ phasor-in;
#X obj 12 534 s~ phasor-out;
#X obj 462 4 r~ phasor-out;
#X obj 487 508 s~ reverb-in;
#X obj 97 477 r~ reverb-in;
#X obj 98 534 s~ reverb-out;
#X obj 494 33 r~ reverb-out;
#X obj 15 562 r~ multitap-in;
#X obj 120 565 r~ flanger-in;
#X obj 16 618 s~ multitap-out;
#X obj 119 618 s~ flanger-out;
#X obj 346 612 s~ multitap-in;
#X obj 381 585 s~ flanger-in;
#X obj 363 -68 r~ multitap-out;
#X obj 395 -43 r~ flanger-out;
#X obj 672 564 r~ chorus-in;
#X obj 671 592 chorus;
#X obj 671 617 s~ chorus-out;
#X obj 416 561 s~ chorus-in;
#X obj 427 -23 r~ chorus-out;
#X obj 594 39 r conect;
#X text 368 47 ph;
#X text 59 312 chorus;
#X text 395 46 rv;
#X text 343 45 ch;
#X text 316 45 fl;
#X obj -74 103 cnv 15 19 128 empty empty empty 20 12 0 14 -233017 -66577
0;
#X obj -75 66 - 100;
#X obj -75 39 env~ 8820;
#X obj -70 107 vu 10 120 empty empty -1 -8 0 8 -1 -262144 0 0;
#X obj -137 107 cnv 15 19 128 empty empty empty 20 12 0 14 -233017
-66577 0;
#X obj -138 70 - 100;
#X obj -138 43 env~ 8820;
#X obj -133 111 vu 10 120 empty empty -1 -8 0 8 -1 -262144 0 0;
#X obj -103 -31 hsl 60 15 0 1 0 0 empty empty empty -2 -8 0 10 -261234
-1 -1 5900 1;
#X obj -118 -1 *~;
#X obj -23 -29 hsl 60 15 0 10 0 0 empty empty empty -2 -8 0 10 -261234
-1 -1 5900 1;
#X obj -7 192 *~;
#X text 290 44 mt;
#X obj -83 456 cnv 15 19 128 empty empty empty 20 12 0 14 -233017 -66577
0;
#X obj -84 419 - 100;
#X obj -84 392 env~ 8820;
#X obj -79 460 vu 10 120 empty empty -1 -8 0 8 -1 -262144 0 0;
#X obj -171 -72 adc~ 5 6 7 8 9;
#X obj 682 208 bng 15 250 50 0 auto empty automatizaciones 17 7 0 10
-262144 -1 -1;
#X text 65 79 mic 5;
#X text 63 101 mic 6;
#X text 63 125 mic 7;
#X text 62 149 mic 8;
#X text 62 174 mic 9;
#X obj -204 107 cnv 15 19 128 empty empty empty 20 12 0 14 -233017
-66577 0;
#X obj -205 70 - 100;
#X obj -205 43 env~ 8820;
#X obj -200 111 vu 10 120 empty empty -1 -8 0 8 -1 -262144 0 0;
#X obj -185 -1 *~;
#X obj -267 108 cnv 15 19 128 empty empty empty 20 12 0 14 -233017
-66577 0;
#X obj -268 71 - 100;
#X obj -268 44 env~ 8820;
#X obj -263 112 vu 10 120 empty empty -1 -8 0 8 -1 -262144 0 0;
#X obj -248 0 *~;
#X obj -334 108 cnv 15 19 128 empty empty empty 20 12 0 14 -233017
-66577 0;
#X obj -335 71 - 100;
#X obj -335 44 env~ 8820;
#X obj -330 112 vu 10 120 empty empty -1 -8 0 8 -1 -262144 0 0;
#X obj -305 -1 *~;
#X obj -191 -30 hsl 60 15 0 1 0 0 empty empty empty -2 -8 0 10 -261234
-1 -1 5900 1;
#X obj -264 -31 hsl 60 15 0 1 0 0 empty empty empty -2 -8 0 10 -261234
-1 -1 5900 1;
#X obj -336 -30 hsl 60 15 0 1 0 0 empty empty empty -2 -8 0 10 -261234
-1 -1 5900 1;
#X obj -37 1 *~;
#X obj 251 466 r~ ringM-in;
#X obj 252 494 ringM;
#X obj 251 527 s~ ringM-out;
#X obj 502 575 s~ ringM-in;
#X obj 536 -25 r~ ringM-out;
#X obj 178 -55 r~ hip-in;
#X obj 179 -27 hip~;
#X obj 178 1 s~ hip-out;
#X obj 279 -41 r~ hip-out;
#X floatatom 253 -65 9 0 0 0 - - -;
#X obj 538 610 s~ hip-in;
#X msg 112 -58 4000;
#X connect 0 7 29 0;
#X connect 0 8 30 0;
#X connect 0 9 36 0;
#X connect 0 10 97 0;
#X connect 0 11 21 0;
#X connect 0 13 4 0;
#X connect 0 14 5 0;
#X connect 2 0 1 0;
#X connect 3 0 1 1;
#X connect 8 0 7 0;
#X connect 9 0 27 0;
#X connect 10 0 28 0;
#X connect 11 0 19 0;
#X connect 12 0 23 0;
#X connect 18 0 11 0;
#X connect 22 0 12 0;
#X connect 24 0 0 12;
#X connect 25 0 9 0;
#X connect 26 0 10 0;
#X connect 31 0 0 8;
#X connect 32 0 0 9;
#X connect 33 0 34 0;
#X connect 34 0 35 0;
#X connect 37 0 0 10;
#X connect 38 0 0 15;
#X connect 45 0 47 0;
#X connect 46 0 45 0;
#X connect 49 0 51 0;
#X connect 50 0 49 0;
#X connect 52 0 53 1;
#X connect 53 0 50 0;
#X connect 53 0 0 3;
#X connect 54 0 86 1;
#X connect 58 0 60 0;
#X connect 59 0 58 0;
#X connect 61 0 82 0;
#X connect 61 1 77 0;
#X connect 61 2 72 0;
#X connect 61 3 53 0;
#X connect 61 4 86 0;
#X connect 69 0 71 0;
#X connect 70 0 69 0;
#X connect 72 0 70 0;
#X connect 72 0 0 2;
#X connect 74 0 76 0;
#X connect 75 0 74 0;
#X connect 77 0 75 0;
#X connect 77 0 0 1;
#X connect 79 0 81 0;
#X connect 80 0 79 0;
#X connect 82 0 80 0;
#X connect 82 0 0 0;
#X connect 83 0 72 1;
#X connect 84 0 77 1;
#X connect 85 0 82 1;
#X connect 86 0 46 0;
#X connect 86 0 0 4;
#X connect 87 0 88 0;
#X connect 88 0 89 0;
#X connect 92 0 93 0;
#X connect 93 0 94 0;
#X connect 95 0 0 11;
#X connect 96 0 93 1;
#X connect 98 0 96 0;
