#N canvas 282 19 1017 668 16;
#X obj 387 463 *~;
#X obj 414 432 r re;
#X obj 138 182 r~ realim;
#X obj 88 255 r r1;
#X msg 88 286 \$1 100;
#X obj 88 350 vd~ mtap;
#X obj 86 213 delwrite~ mtap 2000;
#X msg 176 286 \$1 100;
#X obj 176 350 vd~ mtap;
#X msg 265 286 \$1 100;
#X obj 265 350 vd~ mtap;
#X msg 354 286 \$1 100;
#X obj 354 350 vd~ mtap;
#X msg 442 286 \$1 100;
#X obj 442 350 vd~ mtap;
#X msg 531 286 \$1 100;
#X obj 531 350 vd~ mtap;
#X obj 176 255 r r2;
#X obj 265 255 r r3;
#X obj 354 255 r r4;
#X obj 442 255 r r5;
#X obj 531 255 r r6;
#N canvas 0 22 450 300 suma 0;
#X obj 194 74 inlet~;
#X obj 195 123 outlet~;
#X connect 0 0 1 0;
#X restore 319 421 pd suma;
#X obj 53 451 +~;
#X obj 647 73 loadbang;
#N canvas 57 82 450 300 suma 0;
#X obj 194 74 inlet~;
#X obj 195 123 outlet~;
#X connect 0 0 1 0;
#X restore 54 158 pd suma;
#X floatatom 498 471 5 0 0 0 - - -;
#X obj 387 497 s~ realim;
#X obj 88 318 line~;
#X obj 176 318 line~;
#X obj 265 318 line~;
#X obj 354 318 line~;
#X obj 442 318 line~;
#X obj 531 318 line~;
#X obj 53 487 *~;
#X obj 50 102 inlet~;
#X obj 56 542 outlet~;
#X obj 112 462 r dwmt;
#X msg 647 111 \; r1 130 \; r2 245 \; r3 333 \; r4 689 \; r5 1111 \;
r6 1456 \; re 0.11 \; dwmt 1;
#X connect 0 0 27 0;
#X connect 1 0 0 1;
#X connect 1 0 26 0;
#X connect 2 0 6 0;
#X connect 3 0 4 0;
#X connect 4 0 28 0;
#X connect 5 0 22 0;
#X connect 7 0 29 0;
#X connect 8 0 22 0;
#X connect 9 0 30 0;
#X connect 10 0 22 0;
#X connect 11 0 31 0;
#X connect 12 0 22 0;
#X connect 13 0 32 0;
#X connect 14 0 22 0;
#X connect 15 0 33 0;
#X connect 16 0 22 0;
#X connect 17 0 7 0;
#X connect 18 0 9 0;
#X connect 19 0 11 0;
#X connect 20 0 13 0;
#X connect 21 0 15 0;
#X connect 22 0 0 0;
#X connect 22 0 23 1;
#X connect 23 0 34 0;
#X connect 24 0 38 0;
#X connect 25 0 23 0;
#X connect 25 0 6 0;
#X connect 28 0 5 0;
#X connect 29 0 8 0;
#X connect 30 0 10 0;
#X connect 31 0 12 0;
#X connect 32 0 14 0;
#X connect 33 0 16 0;
#X connect 34 0 36 0;
#X connect 35 0 25 0;
#X connect 37 0 34 1;
