#N canvas 124 96 914 550 10;
#X obj 83 335 r~ output;
#X obj 70 162 delwrite~ phase1 100;
#X obj 71 202 delwrite~ phase2 100;
#X obj 255 126 phasor~;
#X obj 250 172 cos~;
#X obj 318 166 +~ 0.5;
#X obj 318 192 wrap~;
#X obj 250 203 *~ 2;
#X obj 250 231 +~ 2;
#X obj 318 224 cos~;
#X obj 318 252 *~ 2;
#X obj 318 280 +~ 2;
#X obj 318 319 vd~ phase2;
#X obj 318 353 *~ 0.8;
#X obj 247 264 vd~ phase2;
#X obj 247 298 *~ 0.8;
#X obj 258 388 s~ output;
#X obj 410 85 hsl 128 15 0 3 0 0 empty empty empty -2 -8 0 10 -262144
-1 -1 4714 1;
#X obj 455 218 hsl 128 15 0 3 0 0 empty empty empty -2 -8 0 10 -262144
-1 -1 10160 1;
#X obj 469 301 hsl 128 15 -2 2 0 0 empty empty empty -2 -8 0 10 -262144
-1 -1 1357 1;
#X floatatom 416 113 5 0 0 0 - - -;
#X floatatom 457 254 5 0 0 0 - - -;
#X floatatom 474 328 5 0 0 0 - - -;
#X msg 497 57 0.7;
#X msg 483 183 2.4;
#X msg 512 276 -0.3;
#X obj 47 369 outlet~;
#X obj 47 107 inlet~;
#X msg 573 -51 1;
#X obj 569 70 line 500;
#X obj 571 -18 metro 2000;
#X msg 570 44 \$1 1000;
#X obj 572 -77 bng 15 250 50 0 empty auto empty 17 7 0 10 -262144 -1
-1;
#X obj 668 -99 random 4000;
#X floatatom 668 -56 5 0 0 0 - - -;
#X msg 665 93 1;
#X obj 661 214 line 500;
#X obj 663 126 metro 2000;
#X msg 662 188 \$1 1000;
#X obj 664 67 bng 15 250 50 0 empty auto empty 17 7 0 10 -262144 -1
-1;
#X obj 760 45 random 4000;
#X floatatom 760 88 5 0 0 0 - - -;
#X msg 639 258 1;
#X obj 648 395 line 500;
#X obj 637 291 metro 2000;
#X msg 649 369 \$1 1000;
#X obj 638 232 bng 15 250 50 0 empty auto empty 17 7 0 10 -262144 -1
-1;
#X obj 747 226 random 4000;
#X floatatom 734 253 5 0 0 0 - - -;
#X obj 572 14 randomF 3;
#X obj 661 158 randomF 3;
#X obj 638 323 randomF 4;
#X obj 645 346 - 2;
#X connect 0 0 26 0;
#X connect 3 0 4 0;
#X connect 3 0 5 0;
#X connect 4 0 7 0;
#X connect 5 0 6 0;
#X connect 6 0 9 0;
#X connect 7 0 8 0;
#X connect 8 0 14 0;
#X connect 9 0 10 0;
#X connect 10 0 11 0;
#X connect 11 0 12 0;
#X connect 12 0 13 0;
#X connect 12 0 16 0;
#X connect 13 0 2 0;
#X connect 14 0 15 0;
#X connect 14 0 16 0;
#X connect 15 0 1 0;
#X connect 17 0 20 0;
#X connect 17 0 3 0;
#X connect 18 0 21 0;
#X connect 18 0 7 1;
#X connect 18 0 8 1;
#X connect 18 0 10 1;
#X connect 18 0 11 1;
#X connect 19 0 22 0;
#X connect 19 0 13 1;
#X connect 19 0 15 1;
#X connect 23 0 17 0;
#X connect 24 0 18 0;
#X connect 25 0 19 0;
#X connect 27 0 1 0;
#X connect 27 0 2 0;
#X connect 27 0 26 0;
#X connect 28 0 30 0;
#X connect 29 0 17 0;
#X connect 30 0 33 0;
#X connect 30 0 49 0;
#X connect 31 0 29 0;
#X connect 32 0 28 0;
#X connect 33 0 34 0;
#X connect 34 0 30 1;
#X connect 35 0 37 0;
#X connect 37 0 40 0;
#X connect 37 0 50 0;
#X connect 38 0 36 0;
#X connect 39 0 35 0;
#X connect 40 0 41 0;
#X connect 41 0 37 1;
#X connect 42 0 44 0;
#X connect 43 0 19 0;
#X connect 44 0 47 0;
#X connect 44 0 51 0;
#X connect 45 0 43 0;
#X connect 46 0 42 0;
#X connect 47 0 48 0;
#X connect 48 0 44 1;
#X connect 49 0 31 0;
#X connect 50 0 38 0;
#X connect 51 0 52 0;
#X connect 52 0 45 0;
