#N canvas 93 218 1018 518 10;
#X obj 178 349 freeverb~;
#X msg 262 54 roomsize \$1;
#X msg 261 115 damping \$1;
#X msg 257 185 wet \$1;
#X msg 256 206 dry \$1;
#X msg 275 275 freeze \$1;
#X msg 275 315 bypass \$1;
#X obj 275 258 tgl 15 0 empty empty empty 17 7 0 10 -262144 -1 -1 0
1;
#X obj 275 298 tgl 15 0 empty empty empty 17 7 0 10 -262144 -1 -1 0
1;
#X obj 389 148 hsl 128 15 0 1 0 0 empty empty empty -2 -8 0 10 -4032
-1 -1 7748 1;
#X floatatom 386 167 5 0 0 0 - - -;
#X obj 317 189 expr 1-$f1;
#X obj 387 33 hsl 128 15 0 1 0 0 empty empty empty -2 -8 0 10 -4034
-1 -1 640 1;
#X obj 389 90 hsl 128 15 0 1 0 0 empty empty empty -2 -8 0 10 -260097
-1 -1 6936 1;
#X floatatom 386 110 5 0 0 0 - - -;
#X floatatom 384 58 5 0 0 0 - - -;
#X text 437 110 Damping level;
#X text 436 56 Roomize;
#X text 436 175 Wet signal to dry signal ratio;
#X obj 177 20 inlet~;
#X obj 178 465 outlet~;
#X msg 696 31 1;
#X obj 692 152 line 500;
#X obj 694 64 metro 2000;
#X msg 693 126 \$1 1000;
#X obj 695 5 bng 15 250 50 0 empty auto empty 17 7 0 10 -262144 -1
-1;
#X floatatom 791 26 5 0 0 0 - - -;
#X msg 813 135 1;
#X obj 809 256 line 500;
#X obj 811 168 metro 2000;
#X msg 810 230 \$1 1000;
#X obj 812 109 bng 15 250 50 0 empty auto empty 17 7 0 10 -262144 -1
-1;
#X floatatom 908 130 5 0 0 0 - - -;
#X msg 623 255 1;
#X obj 619 376 line 500;
#X obj 621 288 metro 2000;
#X msg 620 350 \$1 1000;
#X obj 622 229 bng 15 250 50 0 empty auto empty 17 7 0 10 -262144 -1
-1;
#X floatatom 718 250 5 0 0 0 - - -;
#X obj 695 95 randomF 1;
#X obj 812 200 randomF 1;
#X obj 622 321 randomF 1;
#X obj 792 -17 random 8000;
#X obj 907 87 random 8000;
#X obj 718 207 random 8000;
#X connect 0 0 20 0;
#X connect 1 0 0 0;
#X connect 2 0 0 0;
#X connect 3 0 0 0;
#X connect 4 0 0 0;
#X connect 5 0 0 0;
#X connect 6 0 0 0;
#X connect 7 0 5 0;
#X connect 8 0 6 0;
#X connect 9 0 10 0;
#X connect 9 0 3 0;
#X connect 9 0 11 0;
#X connect 11 0 4 0;
#X connect 12 0 1 0;
#X connect 12 0 15 0;
#X connect 13 0 2 0;
#X connect 13 0 14 0;
#X connect 19 0 0 0;
#X connect 21 0 23 0;
#X connect 22 0 12 0;
#X connect 23 0 39 0;
#X connect 23 0 42 0;
#X connect 24 0 22 0;
#X connect 25 0 21 0;
#X connect 26 0 23 1;
#X connect 27 0 29 0;
#X connect 28 0 13 0;
#X connect 29 0 40 0;
#X connect 29 0 43 0;
#X connect 30 0 28 0;
#X connect 31 0 27 0;
#X connect 32 0 29 1;
#X connect 33 0 35 0;
#X connect 34 0 9 0;
#X connect 35 0 41 0;
#X connect 35 0 44 0;
#X connect 36 0 34 0;
#X connect 37 0 33 0;
#X connect 38 0 35 1;
#X connect 39 0 24 0;
#X connect 40 0 30 0;
#X connect 41 0 36 0;
#X connect 42 0 26 0;
#X connect 43 0 32 0;
#X connect 44 0 38 0;
