#N canvas 449 131 866 446 10;
#X obj 39 224 *~;
#X obj 98 -27 osc~ 20;
#X obj 143 165 expr 1 - $f1;
#X obj 54 137 *~;
#X obj 53 182 +~;
#X floatatom 143 120 0 0 1 0 - ringNivel -;
#X obj 209 -27 phasor~;
#X obj 154 -27 square~;
#X obj 53 5 zexy/multiplex~ . . . .;
#X obj 9 -89 r ringradio;
#X obj 234 146 hsl 80 10 0 30 0 0 ringNivel empty empty -2 -8 0 10
-262144 -1 -1 4531 1;
#X floatatom 231 167 5 0 0 0 - - ringNivel;
#X obj 676 13 hsl 80 10 0 200 0 0 ringFrecModuladora empty empty -2
-8 0 10 -262144 -1 -1 11 1;
#X floatatom 673 32 5 0 0 0 - - ringNivel;
#X text 288 -10 square;
#X text 288 7 phasor;
#X text 273 -25 oscilator;
#X obj 335 -37 vradio 15 1 0 4 ringradio empty empty 0 -8 0 10 -262144
-1 -1 2;
#X text 672 -4 frec moduladora;
#X text 230 123 nivel modulación;
#X text 361 -83 comment;
#X obj -13 181 inlet~;
#X text 66 98 recibe el nivel de la modulacion;
#X text 673 34 comment;
#X obj 38 269 outlet~;
#X msg 629 147 1;
#X obj 625 268 line 500;
#X obj 627 180 metro 2000;
#X msg 626 242 \$1 1000;
#X obj 628 121 bng 15 250 50 0 empty auto empty 17 7 0 10 -262144 -1
-1;
#X floatatom 724 142 5 0 0 0 - - -;
#X msg 480 -25 1;
#X obj 476 96 line 500;
#X obj 478 8 metro 2000;
#X msg 477 70 \$1 1000;
#X obj 479 -51 bng 15 250 50 0 empty auto empty 17 7 0 10 -262144 -1
-1;
#X floatatom 575 -30 5 0 0 0 - - -;
#X obj 477 41 randomF 1;
#X obj 724 99 random 5000;
#X obj 620 -63 random 6000;
#X text 289 -40;
#X floatatom 100 -62 5 0 0 0 - frecring1 -;
#X floatatom 154 -50 5 0 0 0 - frecring2 -;
#X floatatom 225 -64 5 0 0 0 - frecring3 -;
#X obj 426 -158 loadbang;
#X msg 426 -128 \; frecring1 100 \; frecring2 139 \; frecring3 340
;
#X obj 629 211 randomF 30;
#X connect 0 0 24 0;
#X connect 1 0 8 1;
#X connect 2 0 4 1;
#X connect 3 0 4 0;
#X connect 4 0 0 1;
#X connect 5 0 3 1;
#X connect 5 0 2 0;
#X connect 6 0 8 3;
#X connect 7 0 8 2;
#X connect 8 0 3 0;
#X connect 9 0 8 0;
#X connect 10 0 11 0;
#X connect 12 0 13 0;
#X connect 21 0 0 0;
#X connect 25 0 27 0;
#X connect 26 0 10 0;
#X connect 27 0 38 0;
#X connect 27 0 46 0;
#X connect 28 0 26 0;
#X connect 29 0 25 0;
#X connect 30 0 27 1;
#X connect 31 0 33 0;
#X connect 32 0 12 0;
#X connect 33 0 37 0;
#X connect 33 0 39 0;
#X connect 34 0 32 0;
#X connect 35 0 31 0;
#X connect 36 0 33 1;
#X connect 37 0 34 0;
#X connect 38 0 30 0;
#X connect 39 0 36 0;
#X connect 41 0 1 0;
#X connect 42 0 7 0;
#X connect 43 0 6 0;
#X connect 44 0 45 0;
#X connect 46 0 28 0;
