#N canvas 371 79 751 574 10;
#X obj 102 350 readsf~;
#X obj 102 210 openpanel;
#X obj 103 105 bng 10 250 50 0 empty empty Open 12 5 0 8 -262144 -1
-1;
#X msg 159 168 start;
#X msg 321 222 stop;
#X obj 141 105 tgl 10 0 empty empty Play 12 5 0 8 -262144 -1 -1 0 1
;
#X obj 159 136 sel 1 0;
#X obj 102 231 prepend open;
#X obj 102 252 prepend set;
#X msg 102 272;
#X obj 231 208 t a b;
#X msg 254 285 0;
#X obj 245 397 gate 2;
#X obj 32 166 delay 20;
#X obj 287 144 gate;
#X msg 33 193 start;
#X obj 181 105 tgl 10 1 empty empty Loop 12 5 0 8 -262144 -1 -1 0 1
;
#X obj 102 447 outlet~;
#X obj 152 447 s~ \$0-archivodeaudio;
#X msg 30 251 set;
#X obj 30 217 loadbang;
#X obj 222 176 + 1;
#X connect 0 0 17 0;
#X connect 0 0 18 0;
#X connect 0 1 12 1;
#X connect 1 0 7 0;
#X connect 2 0 1 0;
#X connect 3 0 10 0;
#X connect 4 0 0 0;
#X connect 5 0 6 0;
#X connect 6 0 3 0;
#X connect 6 1 4 0;
#X connect 7 0 8 0;
#X connect 8 0 9 0;
#X connect 9 0 0 0;
#X connect 10 0 0 0;
#X connect 10 1 9 0;
#X connect 11 0 5 0;
#X connect 12 0 11 0;
#X connect 12 1 14 1;
#X connect 13 0 15 0;
#X connect 13 0 3 0;
#X connect 14 0 13 0;
#X connect 14 0 9 0;
#X connect 16 0 14 0;
#X connect 16 0 21 0;
#X connect 19 0 9 0;
#X connect 20 0 19 0;
#X connect 21 0 12 0;
#X coords 0 -1 1 1 115 20 2 100 100;
